<svg width="871" height="871" viewBox="0 0 871 871" fill="none" xmlns="http://www.w3.org/2000/svg">
<rect x="428" width="15" height="77" rx="7.5" fill="#338F6C"/>
<rect x="794" y="443" width="15" height="77" rx="7.5" transform="rotate(-90 794 443)" fill="#338F6C"/>
<rect y="443" width="15" height="77" rx="7.5" transform="rotate(-90 0 443)" fill="#338F6C"/>
<rect x="428" y="794" width="15" height="77" rx="7.5" fill="#338F6C"/>
<rect x="711" y="717.778" width="15" height="40" rx="7.5" transform="rotate(-45 711 717.778)" fill="#338F6C"/>
<rect x="130.778" y="746.134" width="15" height="40" rx="7.5" transform="rotate(-135 130.778 746.134)" fill="#338F6C"/>
<rect x="720.778" y="164.134" width="15" height="40" rx="7.5" transform="rotate(-135 720.778 164.134)" fill="#338F6C"/>
<rect x="129" y="124.778" width="15" height="40" rx="7.5" transform="rotate(-45 129 124.778)" fill="#338F6C"/>
<rect x="211" y="64.6066" width="15" height="15" rx="7.5" transform="rotate(-45 211 64.6066)" fill="#A7A7A7"/>
<rect x="309" y="23.6066" width="15" height="15" rx="7.5" transform="rotate(-45 309 23.6066)" fill="#A7A7A7"/>
<rect width="15" height="15" rx="7.5" transform="matrix(-0.707107 -0.707107 -0.707107 0.707107 660.213 64.6066)" fill="#A7A7A7"/>
<rect width="15" height="15" rx="7.5" transform="matrix(-0.707107 -0.707107 -0.707107 0.707107 562.213 23.6066)" fill="#A7A7A7"/>
<rect width="15" height="15" rx="7.5" transform="matrix(0.707107 0.707107 0.707107 -0.707107 211 803.607)" fill="#A7A7A7"/>
<rect width="15" height="15" rx="7.5" transform="matrix(0.707107 0.707107 0.707107 -0.707107 309 844.607)" fill="#A7A7A7"/>
<rect x="660.213" y="803.607" width="15" height="15" rx="7.5" transform="rotate(135 660.213 803.607)" fill="#A7A7A7"/>
<rect x="562.213" y="844.607" width="15" height="15" rx="7.5" transform="rotate(135 562.213 844.607)" fill="#A7A7A7"/>
<rect width="15" height="15" rx="7.5" transform="matrix(-0.707107 0.707107 0.707107 0.707107 66.1064 209.5)" fill="#A7A7A7"/>
<rect width="15" height="15" rx="7.5" transform="matrix(-0.707107 0.707107 0.707107 0.707107 25.1064 307.5)" fill="#A7A7A7"/>
<rect x="66.1064" y="658.713" width="15" height="15" rx="7.5" transform="rotate(-135 66.1064 658.713)" fill="#A7A7A7"/>
<rect x="25.1064" y="560.713" width="15" height="15" rx="7.5" transform="rotate(-135 25.1064 560.713)" fill="#A7A7A7"/>
<rect x="805.106" y="209.5" width="15" height="15" rx="7.5" transform="rotate(45 805.106 209.5)" fill="#A7A7A7"/>
<rect x="846.107" y="307.5" width="15" height="15" rx="7.5" transform="rotate(45 846.107 307.5)" fill="#A7A7A7"/>
<rect width="15" height="15" rx="7.5" transform="matrix(0.707107 -0.707107 -0.707107 -0.707107 805.107 658.713)" fill="#A7A7A7"/>
<rect width="15" height="15" rx="7.5" transform="matrix(0.707107 -0.707107 -0.707107 -0.707107 846.107 560.713)" fill="#A7A7A7"/>
<path d="M447.608 122.272H441.452L431.156 106.684V122.272H425V97H431.156L441.452 112.66V97H447.608V122.272Z" fill="#373D3F"/>
<path d="M133.108 423L126.52 448.272H119.068L115.036 431.64L110.86 448.272H103.408L97 423H103.588L107.224 441.396L111.724 423H118.492L122.812 441.396L126.484 423H133.108Z" fill="#373D3F"/>
<path d="M765.156 427.932V433.044H773.4V437.796H765.156V443.34H774.48V448.272H759V423H774.48V427.932H765.156Z" fill="#373D3F"/>
<path d="M436.376 773.884C434.528 773.884 432.872 773.584 431.408 772.984C429.944 772.384 428.768 771.496 427.88 770.32C427.016 769.144 426.56 767.728 426.512 766.072H433.064C433.16 767.008 433.484 767.728 434.036 768.232C434.588 768.712 435.308 768.952 436.196 768.952C437.108 768.952 437.828 768.748 438.356 768.34C438.884 767.908 439.148 767.32 439.148 766.576C439.148 765.952 438.932 765.436 438.5 765.028C438.092 764.62 437.576 764.284 436.952 764.02C436.352 763.756 435.488 763.456 434.36 763.12C432.728 762.616 431.396 762.112 430.364 761.608C429.332 761.104 428.444 760.36 427.7 759.376C426.956 758.392 426.584 757.108 426.584 755.524C426.584 753.172 427.436 751.336 429.14 750.016C430.844 748.672 433.064 748 435.8 748C438.584 748 440.828 748.672 442.532 750.016C444.236 751.336 445.148 753.184 445.268 755.56H438.608C438.56 754.744 438.26 754.108 437.708 753.652C437.156 753.172 436.448 752.932 435.584 752.932C434.84 752.932 434.24 753.136 433.784 753.544C433.328 753.928 433.1 754.492 433.1 755.236C433.1 756.052 433.484 756.688 434.252 757.144C435.02 757.6 436.22 758.092 437.852 758.62C439.484 759.172 440.804 759.7 441.812 760.204C442.844 760.708 443.732 761.44 444.476 762.4C445.22 763.36 445.592 764.596 445.592 766.108C445.592 767.548 445.22 768.856 444.476 770.032C443.756 771.208 442.7 772.144 441.308 772.84C439.916 773.536 438.272 773.884 436.376 773.884Z" fill="#373D3F"/>
</svg>
