<svg width="252" height="475" viewBox="0 0 252 475" fill="none" xmlns="http://www.w3.org/2000/svg">
<path fill-rule="evenodd" clip-rule="evenodd" d="M104.36 176.787C116.076 165.071 135.071 165.071 146.787 176.787L165.993 195.993H193.154C209.723 195.993 223.154 209.424 223.154 225.993V253.154L242.36 272.36C254.076 284.076 254.076 303.071 242.36 314.787L223.154 333.993V361.154C223.154 377.723 209.723 391.154 193.154 391.154H165.993L146.787 410.36C135.071 422.076 116.076 422.076 104.36 410.36L85.1543 391.154H57.9928C41.4242 391.154 27.9928 377.723 27.9928 361.154V333.993L8.78677 314.787C-2.92892 303.071 -2.92892 284.076 8.78677 272.36L27.9928 253.154V225.993C27.9928 209.424 41.4242 195.993 57.9928 195.993H85.1544L104.36 176.787ZM169.648 259.57L170 259.439V276.333L126 292.683L82 276.333V259.439L82.53 259.636L126 242L169.648 259.57ZM126 275.788L88.591 261.888L126.007 246.708L163.569 261.829L126 275.788ZM82 284.508V328.651L126 345L170 328.651V284.508L126 300.857L82 284.508Z" fill="#338F6C"/>
<path fill-rule="evenodd" clip-rule="evenodd" d="M110 43.3652C110 42.9647 110.06 42.5665 110.178 42.1839L122.178 3.36314C123.34 -0.395134 128.66 -0.395134 129.822 3.36314L141.822 42.1839C141.94 42.5665 142 42.9647 142 43.3652V164.098C132.338 157.763 119.824 157.584 110 163.559V43.3652ZM110 423.588V471C110 473.209 111.791 475 114 475H138C140.209 475 142 473.209 142 471V423.049C132.338 429.384 119.824 429.563 110 423.588Z" fill="#338F6C"/>
</svg>
